<?xml version="1.0" encoding="utf-8"?>
<!-- Generator: Adobe Illustrator 16.0.4, SVG Export Plug-In . SVG Version: 6.00 Build 0)  -->
<!DOCTYPE svg PUBLIC "-//W3C//DTD SVG 1.1//EN" "http://www.w3.org/Graphics/SVG/1.1/DTD/svg11.dtd">
<svg version="1.1" id="Layer_1" xmlns="http://www.w3.org/2000/svg" xmlns:xlink="http://www.w3.org/1999/xlink" x="0px" y="0px"
	 width="612px" height="792px" viewBox="0 0 612 792" enable-background="new 0 0 612 792" xml:space="preserve">
<g>
	<defs>
		<rect id="SVGID_1_" x="139.34" y="22.64" width="322.92" height="232.74"/>
	</defs>
	<clipPath id="SVGID_2_">
		<use xlink:href="#SVGID_1_"  overflow="visible"/>
	</clipPath>
	<g clip-path="url(#SVGID_2_)">
		<defs>
			<rect id="SVGID_3_" x="138.02" y="21.2" width="333.72" height="235.62"/>
		</defs>
		<clipPath id="SVGID_4_">
			<use xlink:href="#SVGID_3_"  overflow="visible"/>
		</clipPath>
		<g clip-path="url(#SVGID_4_)">
			<defs>
				<rect id="SVGID_5_" x="8" y="-24.98" width="595.2" height="841.98"/>
			</defs>
			<clipPath id="SVGID_6_">
				<use xlink:href="#SVGID_5_"  overflow="visible"/>
			</clipPath>
			<rect x="327.08" y="121.16" clip-path="url(#SVGID_6_)" fill="#CDEBFB" width="123.66" height="78.3"/>
			
				<path clip-path="url(#SVGID_6_)" fill="none" stroke="#000000" stroke-width="1.078" stroke-linecap="round" stroke-linejoin="round" stroke-miterlimit="10" d="
				M327.08,121.16 M450.74,121.16H327.08v78.3h123.66V121.16z"/>
			<g clip-path="url(#SVGID_6_)">
				<text transform="matrix(1 0 0 1 364.7598 132.5596)" font-family="'Arial-BoldMT'" font-size="12.9565">Context</text>
			</g>
			<rect x="351.8" y="138.2" clip-path="url(#SVGID_6_)" fill="#CDEBFB" width="74.22" height="18.54"/>
			
				<path clip-path="url(#SVGID_6_)" fill="none" stroke="#000000" stroke-width="1.078" stroke-linecap="round" stroke-linejoin="round" stroke-miterlimit="10" d="
				M351.8,138.2 M426.02,138.2H351.8v18.54h74.22V138.2z"/>
			<g clip-path="url(#SVGID_6_)">
				<text transform="matrix(1 0 0 1 355.7598 151.9395)"><tspan x="0" y="0" font-family="'Arial-BoldMT'" font-size="12.9565">Int</tspan><tspan x="15.829" y="0" font-family="'Arial-BoldMT'" font-size="12.9565">er</tspan><tspan x="28.051" y="0" font-family="'Arial-BoldMT'" font-size="12.9565">a</tspan><tspan x="35.36" y="0" font-family="'Arial-BoldMT'" font-size="12.9565">c</tspan><tspan x="42.553" y="0" font-family="'Arial-BoldMT'" font-size="12.9565">tion</tspan></text>
			</g>
			<path clip-path="url(#SVGID_6_)" fill-rule="evenodd" clip-rule="evenodd" fill="#FAC8C9" d="M144.38,220.94h-0.36l-0.96,0.24
				l-0.36,0.12l-0.48,0.24l-0.72,0.48l-0.6,0.6l-0.24,0.36c-0.461,0.573-0.768,1.297-0.72,2.04l-0.12,0.48v18.24l0.12,0.48
				c0.059,2.123,2.003,3.899,4.08,4.08h312.84l0.96-0.24l0.359-0.12l0.48-0.12l0.359-0.24l0.961-0.96
				c0.7-1.117,0.605-0.628,0.96-1.92v-0.48l0.119-0.48V225.5l-0.119-0.48c0.048-0.743-0.26-1.467-0.721-2.04l-0.239-0.36l-0.36-0.36
				c-0.294-0.361-1.348-0.998-1.8-1.08l-0.96-0.24H144.38"/>
			<path clip-path="url(#SVGID_6_)" fill="#ED2224" d="M459.62,223.22l-0.36-0.6v0.12l-0.6-0.6l0.12,0.12l-0.84-0.479l0.119,0.12
				l-0.84-0.36l0.12,0.12l-0.479-0.12h-0.48l0.12-1.2l0.48,0.12h0.6l0.84,0.36h0.12l0.72,0.48h0.12l0.601,0.6h0.119l0.48,0.6
				L459.62,223.22z M461.54,230.54h-1.08v-4.56h1.08V230.54z M461.54,238.34h-1.08v-4.44h1.08V238.34z M459.86,245.9l0.239-0.6v0.12
				l0.24-0.96v0.12l0.12-0.48v-2.4h1.08v2.64l-0.12,0.48l-0.24,0.84v0.12l-0.359,0.6L459.86,245.9z M453.26,247.82h3.24l0.36-0.12
				h0.479h-0.12l0.36-0.12l0.36,1.08l-0.36,0.12h-0.12l-0.479,0.12h-3.721V247.82z M445.34,247.82h4.561v1.08h-4.561V247.82z
				 M437.54,247.82h4.44v1.08h-4.44V247.82z M429.62,247.82h4.56v1.08h-4.56V247.82z M421.7,247.82h4.56v1.08h-4.56V247.82z
				 M413.9,247.82h4.439v1.08H413.9V247.82z M405.98,247.82h4.56v1.08h-4.56V247.82z M398.18,247.82h4.44v1.08h-4.44V247.82z
				 M390.26,247.82h4.44v1.08h-4.44V247.82z M382.4,247.82h4.5v1.08h-4.5V247.82z M374.6,247.82h4.44v1.08h-4.44V247.82z
				 M366.68,247.82h4.561v1.08h-4.561V247.82z M358.76,247.82h4.561v1.08h-4.561V247.82z M350.96,247.82h4.44v1.08h-4.44V247.82z
				 M343.04,247.82h4.56v1.08h-4.56V247.82z M335.24,247.82h4.439v1.08h-4.439V247.82z M327.32,247.82h4.439v1.08h-4.439V247.82z
				 M319.4,247.82h4.56v1.08h-4.56V247.82z M311.6,247.82h4.44v1.08h-4.44V247.82z M303.68,247.82h4.56v1.08h-4.56V247.82z
				 M295.76,247.82h4.56v1.08h-4.56V247.82z M287.96,247.82h4.44v1.08h-4.44V247.82z M280.04,247.82h4.56v1.08h-4.56V247.82z
				 M272.24,247.82h4.44v1.08h-4.44V247.82z M264.32,247.82h4.44v1.08h-4.44V247.82z M256.4,247.82h4.56v1.08h-4.56V247.82z
				 M248.6,247.82h4.44v1.08h-4.44V247.82z M240.68,247.82h4.56v1.08h-4.56V247.82z M232.76,247.82h4.56v1.08h-4.56V247.82z
				 M224.96,247.82h4.44v1.08h-4.44V247.82z M217.1,247.82h4.56v1.08h-4.56V247.82z M209.3,247.82h4.44v1.08h-4.44V247.82z
				 M201.38,247.82h4.44v1.08h-4.44V247.82z M193.46,247.82h4.56v1.08h-4.56V247.82z M185.66,247.82h4.44v1.08h-4.44V247.82z
				 M177.74,247.82h4.56v1.08h-4.56V247.82z M169.82,247.82h4.56v1.08h-4.56V247.82z M162.02,247.82h4.44v1.08h-4.44V247.82z
				 M154.1,247.82h4.56v1.08h-4.56V247.82z M146.3,247.82h4.44v1.08h-4.44V247.82z M140.54,244.7l0.24,0.72v-0.12l0.36,0.72v-0.12
				l0.48,0.72v-0.12l0.6,0.6h-0.12l0.84,0.36h-0.12h0.24l-0.36,1.08h-0.24v-0.12l-0.84-0.36l-0.12-0.12l-0.6-0.48l-0.12-0.12
				l-0.6-0.72l-0.48-0.84v-0.12l-0.24-0.6L140.54,244.7z M139.34,237.02h1.08v4.44h-1.08V237.02z M139.34,229.1h1.08v4.56h-1.08
				V229.1z M142.1,222.26l-0.48,0.48v-0.12l-0.48,0.72v-0.12l-0.36,0.84v-0.12l-0.24,0.84v-0.12l-0.12,0.48v0.6h-1.08v-0.72
				l0.12-0.48v-0.12l0.24-0.84v-0.12l0.48-0.72v-0.12l0.6-0.72h0.12l0.48-0.48L142.1,222.26z M149.42,221.54h-4.44v-1.2h4.44V221.54
				z M157.34,221.54h-4.56v-1.2h4.56V221.54z M165.14,221.54h-4.44v-1.2h4.44V221.54z M173.06,221.54h-4.44v-1.2h4.44V221.54z
				 M180.98,221.54h-4.56v-1.2h4.56V221.54z M188.78,221.54h-4.44v-1.2h4.44V221.54z M196.7,221.54h-4.56v-1.2h4.56V221.54z
				 M204.62,221.54h-4.56v-1.2h4.56V221.54z M212.42,221.54h-4.44v-1.2h4.44V221.54z M220.34,221.54h-4.56v-1.2h4.56V221.54z
				 M228.08,221.54h-4.38v-1.2h4.38V221.54z M236,221.54h-4.44v-1.2H236V221.54z M243.92,221.54h-4.56v-1.2h4.56V221.54z
				 M251.72,221.54h-4.44v-1.2h4.44V221.54z M259.64,221.54h-4.56v-1.2h4.56V221.54z M267.56,221.54H263v-1.2h4.56V221.54z
				 M275.36,221.54h-4.44v-1.2h4.44V221.54z M283.28,221.54h-4.56v-1.2h4.56V221.54z M291.08,221.54h-4.44v-1.2h4.44V221.54z
				 M299,221.54h-4.44v-1.2H299V221.54z M306.92,221.54h-4.56v-1.2h4.56V221.54z M314.72,221.54h-4.439v-1.2h4.439V221.54z
				 M322.64,221.54h-4.56v-1.2h4.56V221.54z M330.56,221.54H326v-1.2h4.56V221.54z M338.36,221.54h-4.44v-1.2h4.44V221.54z
				 M346.28,221.54h-4.561v-1.2h4.561V221.54z M354.08,221.54h-4.44v-1.2h4.44V221.54z M362,221.54h-4.44v-1.2H362V221.54z
				 M369.92,221.54h-4.56v-1.2h4.56V221.54z M377.72,221.54h-4.439v-1.2h4.439V221.54z M385.58,221.54h-4.5v-1.2h4.5V221.54z
				 M393.5,221.54h-4.56v-1.2h4.56V221.54z M401.3,221.54h-4.439v-1.2h4.439V221.54z M409.22,221.54h-4.56v-1.2h4.56V221.54z
				 M417.02,221.54h-4.439v-1.2h4.439V221.54z M424.94,221.54h-4.44v-1.2h4.44V221.54z M432.86,221.54H428.3v-1.2h4.561V221.54z
				 M440.66,221.54h-4.44v-1.2h4.44V221.54z M448.58,221.54h-4.561v-1.2h4.561V221.54z M456.5,221.54h-4.56v-1.2h4.56V221.54z"/>
			
				<path clip-path="url(#SVGID_6_)" fill="none" stroke="#ED2224" stroke-width="0.12" stroke-linecap="round" stroke-linejoin="round" stroke-miterlimit="10" d="
				M459.62,223.22l-0.36-0.6v0.12l-0.6-0.6l0.12,0.12l-0.84-0.479l0.119,0.12l-0.84-0.36l0.12,0.12l-0.479-0.12h-0.48l0.12-1.2
				l0.48,0.12h0.6l0.84,0.36h0.12l0.72,0.48h0.12l0.601,0.6h0.119l0.48,0.6L459.62,223.22z M461.54,230.54h-1.08v-4.56h1.08V230.54z
				 M461.54,238.34h-1.08v-4.44h1.08V238.34z M459.86,245.9l0.239-0.6v0.12l0.24-0.96v0.12l0.12-0.48v-2.4h1.08v2.64l-0.12,0.48
				l-0.24,0.84v0.12l-0.359,0.6L459.86,245.9z M453.26,247.82h3.24l0.36-0.12h0.479h-0.12l0.36-0.12l0.36,1.08l-0.36,0.12h-0.12
				l-0.479,0.12h-3.721V247.82z M445.34,247.82h4.561v1.08h-4.561V247.82z M437.54,247.82h4.44v1.08h-4.44V247.82z M429.62,247.82
				h4.56v1.08h-4.56V247.82z M421.7,247.82h4.56v1.08h-4.56V247.82z M413.9,247.82h4.439v1.08H413.9V247.82z M405.98,247.82h4.56
				v1.08h-4.56V247.82z M398.18,247.82h4.44v1.08h-4.44V247.82z M390.26,247.82h4.44v1.08h-4.44V247.82z M382.4,247.82h4.5v1.08
				h-4.5V247.82z M374.6,247.82h4.44v1.08h-4.44V247.82z M366.68,247.82h4.561v1.08h-4.561V247.82z M358.76,247.82h4.561v1.08
				h-4.561V247.82z M350.96,247.82h4.44v1.08h-4.44V247.82z M343.04,247.82h4.56v1.08h-4.56V247.82z M335.24,247.82h4.439v1.08
				h-4.439V247.82z M327.32,247.82h4.439v1.08h-4.439V247.82z M319.4,247.82h4.56v1.08h-4.56V247.82z M311.6,247.82h4.44v1.08h-4.44
				V247.82z M303.68,247.82h4.56v1.08h-4.56V247.82z M295.76,247.82h4.56v1.08h-4.56V247.82z M287.96,247.82h4.44v1.08h-4.44V247.82
				z M280.04,247.82h4.56v1.08h-4.56V247.82z M272.24,247.82h4.44v1.08h-4.44V247.82z M264.32,247.82h4.44v1.08h-4.44V247.82z
				 M256.4,247.82h4.56v1.08h-4.56V247.82z M248.6,247.82h4.44v1.08h-4.44V247.82z M240.68,247.82h4.56v1.08h-4.56V247.82z
				 M232.76,247.82h4.56v1.08h-4.56V247.82z M224.96,247.82h4.44v1.08h-4.44V247.82z M217.1,247.82h4.56v1.08h-4.56V247.82z
				 M209.3,247.82h4.44v1.08h-4.44V247.82z M201.38,247.82h4.44v1.08h-4.44V247.82z M193.46,247.82h4.56v1.08h-4.56V247.82z
				 M185.66,247.82h4.44v1.08h-4.44V247.82z M177.74,247.82h4.56v1.08h-4.56V247.82z M169.82,247.82h4.56v1.08h-4.56V247.82z
				 M162.02,247.82h4.44v1.08h-4.44V247.82z M154.1,247.82h4.56v1.08h-4.56V247.82z M146.3,247.82h4.44v1.08h-4.44V247.82z
				 M140.54,244.7l0.24,0.72v-0.12l0.36,0.72v-0.12l0.48,0.72v-0.12l0.6,0.6h-0.12l0.84,0.36h-0.12h0.24l-0.36,1.08h-0.24v-0.12
				l-0.84-0.36l-0.12-0.12l-0.6-0.48l-0.12-0.12l-0.6-0.72l-0.48-0.84v-0.12l-0.24-0.6L140.54,244.7z M139.34,237.02h1.08v4.44
				h-1.08V237.02z M139.34,229.1h1.08v4.56h-1.08V229.1z M142.1,222.26l-0.48,0.48v-0.12l-0.48,0.72v-0.12l-0.36,0.84v-0.12
				l-0.24,0.84v-0.12l-0.12,0.48v0.6h-1.08v-0.72l0.12-0.48v-0.12l0.24-0.84v-0.12l0.48-0.72v-0.12l0.6-0.72h0.12l0.48-0.48
				L142.1,222.26z M149.42,221.54h-4.44v-1.2h4.44V221.54z M157.34,221.54h-4.56v-1.2h4.56V221.54z M165.14,221.54h-4.44v-1.2h4.44
				V221.54z M173.06,221.54h-4.44v-1.2h4.44V221.54z M180.98,221.54h-4.56v-1.2h4.56V221.54z M188.78,221.54h-4.44v-1.2h4.44V221.54
				z M196.7,221.54h-4.56v-1.2h4.56V221.54z M204.62,221.54h-4.56v-1.2h4.56V221.54z M212.42,221.54h-4.44v-1.2h4.44V221.54z
				 M220.34,221.54h-4.56v-1.2h4.56V221.54z M228.08,221.54h-4.38v-1.2h4.38V221.54z M236,221.54h-4.44v-1.2H236V221.54z
				 M243.92,221.54h-4.56v-1.2h4.56V221.54z M251.72,221.54h-4.44v-1.2h4.44V221.54z M259.64,221.54h-4.56v-1.2h4.56V221.54z
				 M267.56,221.54H263v-1.2h4.56V221.54z M275.36,221.54h-4.44v-1.2h4.44V221.54z M283.28,221.54h-4.56v-1.2h4.56V221.54z
				 M291.08,221.54h-4.44v-1.2h4.44V221.54z M299,221.54h-4.44v-1.2H299V221.54z M306.92,221.54h-4.56v-1.2h4.56V221.54z
				 M314.72,221.54h-4.439v-1.2h4.439V221.54z M322.64,221.54h-4.56v-1.2h4.56V221.54z M330.56,221.54H326v-1.2h4.56V221.54z
				 M338.36,221.54h-4.44v-1.2h4.44V221.54z M346.28,221.54h-4.561v-1.2h4.561V221.54z M354.08,221.54h-4.44v-1.2h4.44V221.54z
				 M362,221.54h-4.44v-1.2H362V221.54z M369.92,221.54h-4.56v-1.2h4.56V221.54z M377.72,221.54h-4.439v-1.2h4.439V221.54z
				 M385.58,221.54h-4.5v-1.2h4.5V221.54z M393.5,221.54h-4.56v-1.2h4.56V221.54z M401.3,221.54h-4.439v-1.2h4.439V221.54z
				 M409.22,221.54h-4.56v-1.2h4.56V221.54z M417.02,221.54h-4.439v-1.2h4.439V221.54z M424.94,221.54h-4.44v-1.2h4.44V221.54z
				 M432.86,221.54H428.3v-1.2h4.561V221.54z M440.66,221.54h-4.44v-1.2h4.44V221.54z M448.58,221.54h-4.561v-1.2h4.561V221.54z
				 M456.5,221.54h-4.56v-1.2h4.56V221.54z"/>
			<g clip-path="url(#SVGID_6_)">
				<text transform="matrix(1 0 0 1 250.8799 240.9795)"><tspan x="0" y="0" fill="#ED2224" font-family="'Arial-BoldItalicMT'" font-size="17.0356">data</tspan><tspan x="35.028" y="0" fill="#ED2224" font-family="'Arial-BoldItalicMT'" font-size="17.0356"> </tspan><tspan x="39.727" y="0" fill="#ED2224" font-family="'Arial-BoldItalicMT'" font-size="17.0356">ob</tspan><tspan x="60.539" y="0" fill="#ED2224" font-family="'Arial-BoldItalicMT'" font-size="17.0356">j</tspan><tspan x="65.237" y="0" fill="#ED2224" font-family="'Arial-BoldItalicMT'" font-size="17.0356">ects</tspan></text>
			</g>
			<rect x="326.6" y="70.52" clip-path="url(#SVGID_6_)" fill="#CDEBFB" width="124.141" height="28.32"/>
			
				<path clip-path="url(#SVGID_6_)" fill="none" stroke="#000000" stroke-width="1.078" stroke-linecap="round" stroke-linejoin="round" stroke-miterlimit="10" d="
				M326.6,70.52 M450.74,70.52H326.6v28.32H450.74V70.52z"/>
			<g clip-path="url(#SVGID_6_)">
				<text transform="matrix(1 0 0 1 363.7998 89.1196)"><tspan x="0" y="0" font-family="'Arial-BoldMT'" font-size="12.9565">M</tspan><tspan x="10.909" y="0" font-family="'Arial-BoldMT'" font-size="12.9565">a</tspan><tspan x="18.115" y="0" font-family="'Arial-BoldMT'" font-size="12.9565">e</tspan><tspan x="25.256" y="0" font-family="'Arial-BoldMT'" font-size="12.9565">stro</tspan></text>
			</g>
			<g clip-path="url(#SVGID_6_)">
				<text transform="matrix(1 0 0 1 342.2002 210.1396)"><tspan x="0" y="0" fill="#ED2224" font-family="'Arial-BoldItalicMT'" font-size="9.9574">Bind</tspan><tspan x="22.162" y="0" fill="#ED2224" font-family="'Arial-BoldItalicMT'" font-size="9.9574"> </tspan><tspan x="24.929" y="0" fill="#ED2224" font-family="'Arial-BoldItalicMT'" font-size="9.9574">r</tspan><tspan x="28.773" y="0" fill="#ED2224" font-family="'Arial-BoldItalicMT'" font-size="9.9574">o</tspan><tspan x="34.886" y="0" fill="#ED2224" font-family="'Arial-BoldItalicMT'" font-size="9.9574">l</tspan><tspan x="37.662" y="0" fill="#ED2224" font-family="'Arial-BoldItalicMT'" font-size="9.9574">e</tspan><tspan x="43.19" y="0" fill="#ED2224" font-family="'Arial-BoldItalicMT'" font-size="9.9574"> </tspan><tspan x="45.896" y="0" fill="#ED2224" font-family="'Arial-BoldItalicMT'" font-size="9.9574"> </tspan><tspan x="48.663" y="0" fill="#ED2224" font-family="'Arial-BoldItalicMT'" font-size="9.9574">to</tspan><tspan x="58.081" y="0" fill="#ED2224" font-family="'Arial-BoldItalicMT'" font-size="9.9574"> </tspan><tspan x="60.848" y="0" fill="#ED2224" font-family="'Arial-BoldItalicMT'" font-size="9.9574">obj</tspan><tspan x="75.809" y="0" fill="#ED2224" font-family="'Arial-BoldItalicMT'" font-size="9.9574">ec</tspan><tspan x="86.865" y="0" fill="#ED2224" font-family="'Arial-BoldItalicMT'" font-size="9.9574">t</tspan></text>
			</g>
			<path clip-path="url(#SVGID_6_)" fill="#ED2224" d="M392.78,214.94l-4.32,5.16l-4.26-5.16l-0.12-0.24l-0.12-0.36l0.12-0.24
				l0.24-0.24l0.239-0.12h0.48l0.24,0.24l3.779,4.44h-1.199l3.72-4.44l0.24-0.24h0.6l0.24,0.12l0.24,0.24v0.6L392.78,214.94z
				 M387.74,215.9h1.439v3h-1.439V215.9z M387.74,205.46h1.439v6h-1.439V205.46z M387.74,194.9h1.439v6h-1.439V194.9z"/>
			
				<path clip-path="url(#SVGID_6_)" fill="none" stroke="#ED2224" stroke-width="0.12" stroke-linecap="round" stroke-linejoin="round" stroke-miterlimit="10" d="
				M392.78,214.94l-4.32,5.16l-4.26-5.16l-0.12-0.24l-0.12-0.36l0.12-0.24l0.24-0.24l0.239-0.12h0.48l0.24,0.24l3.779,4.44h-1.199
				l3.72-4.44l0.24-0.24h0.6l0.24,0.12l0.24,0.24v0.6L392.78,214.94z M387.74,215.9h1.439v3h-1.439V215.9z M387.74,205.46h1.439v6
				h-1.439V205.46z M387.74,194.9h1.439v6h-1.439V194.9z"/>
			<path clip-path="url(#SVGID_6_)" d="M382.4,62.84l-12.841,4.44l3-13.2v-0.24l0.12-0.24l0.24-0.12l0.12-0.12l0.24-0.12l0.12-0.12
				h0.479l0.24,0.12l0.12,0.12l0.24,0.12l0.119,0.24l0.12,0.12v0.72l-2.52,11.28l-1.44-1.32l10.92-3.84l0.24-0.12h0.24l0.12,0.12
				h0.239l0.24,0.12l0.12,0.12l0.12,0.24l0.12,0.24v0.12l0.12,0.24L383.12,62v0.24L383,62.36l-0.36,0.36L382.4,62.84z M288.44,31.76
				l7.56-0.6l7.32-0.48l7.32-0.6c12.478-0.61,24.942-1.6,37.44-1.68h5.88c8.416,0.136,17.014,0.22,25.2,2.4l1.56,0.48l1.32,0.479
				l1.32,0.6c13.269,7.288-2.64,23.524-8.16,30.24l-2.28,2.76l-0.96,0.96l-1.68-1.44l0.96-1.08l2.279-2.64
				c3.878-5.028,20.051-21.089,8.881-26.76l-1.08-0.48L380,33.44l-1.44-0.48c-6.296-1.844-15.274-2.207-21.84-2.28h-5.64
				c-13.416-0.03-26.816,0.88-40.2,1.68l-7.32,0.48l-7.44,0.6l-7.44,0.48L288.44,31.76z"/>
			
				<path clip-path="url(#SVGID_6_)" fill="none" stroke="#000000" stroke-width="0.12" stroke-linecap="round" stroke-linejoin="round" stroke-miterlimit="10" d="
				M382.4,62.84l-12.841,4.44l3-13.2v-0.24l0.12-0.24l0.24-0.12l0.12-0.12l0.24-0.12l0.12-0.12h0.479l0.24,0.12l0.12,0.12l0.24,0.12
				l0.119,0.24l0.12,0.12v0.72l-2.52,11.28l-1.44-1.32l10.92-3.84l0.24-0.12h0.24l0.12,0.12h0.239l0.24,0.12l0.12,0.12l0.12,0.24
				l0.12,0.24v0.12l0.12,0.24L383.12,62v0.24L383,62.36l-0.36,0.36L382.4,62.84z M288.44,31.76l7.56-0.6l7.32-0.48l7.32-0.6
				c12.478-0.61,24.942-1.6,37.44-1.68h5.88c8.416,0.136,17.014,0.22,25.2,2.4l1.56,0.48l1.32,0.479l1.32,0.6
				c13.269,7.288-2.64,23.524-8.16,30.24l-2.28,2.76l-0.96,0.96l-1.68-1.44l0.96-1.08l2.279-2.64
				c3.878-5.028,20.051-21.089,8.881-26.76l-1.08-0.48L380,33.44l-1.44-0.48c-6.296-1.844-15.274-2.207-21.84-2.28h-5.64
				c-13.416-0.03-26.816,0.88-40.2,1.68l-7.32,0.48l-7.44,0.6l-7.44,0.48L288.44,31.76z"/>
			<g clip-path="url(#SVGID_6_)">
				<text transform="matrix(1 0 0 1 354.2002 112.5195)"><tspan x="0" y="0" fill="#373896" font-family="'Arial-BoldItalicMT'" font-size="9.9574">Trigger</tspan><tspan x="34.302" y="0" fill="#373896" font-family="'Arial-BoldItalicMT'" font-size="9.9574"> </tspan><tspan x="37.008" y="0" fill="#373896" font-family="'Arial-BoldItalicMT'" font-size="9.9574"> in</tspan><tspan x="48.623" y="0" fill="#373896" font-family="'Arial-BoldItalicMT'" font-size="9.9574">t</tspan><tspan x="51.979" y="0" fill="#373896" font-family="'Arial-BoldItalicMT'" font-size="9.9574">e</tspan><tspan x="57.507" y="0" fill="#373896" font-family="'Arial-BoldItalicMT'" font-size="9.9574">r</tspan><tspan x="61.382" y="0" fill="#373896" font-family="'Arial-BoldItalicMT'" font-size="9.9574">a</tspan><tspan x="67.02" y="0" fill="#373896" font-family="'Arial-BoldItalicMT'" font-size="9.9574">c</tspan><tspan x="72.558" y="0" fill="#373896" font-family="'Arial-BoldItalicMT'" font-size="9.9574">t</tspan><tspan x="75.913" y="0" fill="#373896" font-family="'Arial-BoldItalicMT'" font-size="9.9574">ion</tspan></text>
			</g>
			<path clip-path="url(#SVGID_6_)" fill="#373896" d="M395.54,116l-4.32,5.16L386.9,116l-0.12-0.24v-0.6l0.239-0.24l0.24-0.12
				h0.601l0.239,0.24l3.721,4.44h-1.08l3.72-4.44l0.24-0.24h0.479l0.36,0.12l0.24,0.48l-0.12,0.36L395.54,116z M390.5,98.84h1.56
				v21.12h-1.56V98.84z"/>
			
				<path clip-path="url(#SVGID_6_)" fill="none" stroke="#373896" stroke-width="0.12" stroke-linecap="round" stroke-linejoin="round" stroke-miterlimit="10" d="
				M395.54,116l-4.32,5.16L386.9,116l-0.12-0.24v-0.6l0.239-0.24l0.24-0.12h0.601l0.239,0.24l3.721,4.44h-1.08l3.72-4.44l0.24-0.24
				h0.479l0.36,0.12l0.24,0.48l-0.12,0.36L395.54,116z M390.5,98.84h1.56v21.12h-1.56V98.84z"/>
			
				<path clip-path="url(#SVGID_6_)" fill="none" stroke="#000000" stroke-width="1.078" stroke-linecap="round" stroke-linejoin="round" stroke-miterlimit="10" d="
				M281.96,35.6L281,36.08c-4.54,2.245-9.739,2.245-14.28,0l-0.96-0.48"/>
			
				<line clip-path="url(#SVGID_6_)" fill="none" stroke="#000000" stroke-width="1.437" stroke-linecap="round" stroke-linejoin="round" stroke-miterlimit="10" x1="274.76" y1="41.48" x2="274.76" y2="56.12"/>
			<path clip-path="url(#SVGID_6_)" fill-rule="evenodd" clip-rule="evenodd" fill="#FFFFFF" d="M274.76,23.36h1.2
				c15.08,1.784,14.383,16.864-0.6,18.12h-1.32c-14.887-1.182-15.754-16.336-0.6-18.12H274.76"/>
			
				<path clip-path="url(#SVGID_6_)" fill="none" stroke="#000000" stroke-width="1.437" stroke-linecap="round" stroke-linejoin="round" stroke-miterlimit="10" d="
				M274.76,23.36h1.2c15.08,1.784,14.383,16.864-0.6,18.12h-1.32c-14.887-1.182-15.754-16.336-0.6-18.12H274.76z"/>
			
				<polygon clip-path="url(#SVGID_6_)" fill="none" stroke="#000000" stroke-width="0.719" stroke-linecap="round" stroke-linejoin="round" stroke-miterlimit="10" points="
				279.92,26.48 280.4,26.48 280.52,26.6 280.76,26.6 281,26.84 281.12,26.84 281.6,27.32 281.6,27.56 281.72,27.68 281.84,27.92 
				281.96,28.04 281.96,28.88 281.84,29 281.72,29.24 281.6,29.36 281.6,29.6 281.36,29.84 281.12,29.96 280.76,30.32 280.52,30.32 
				280.4,30.44 280.16,30.44 279.92,30.56 279.68,30.44 279.56,30.44 279.32,30.32 279.2,30.32 278.96,30.2 278.36,29.6 
				278.24,29.36 278.12,29.24 278.12,29 278,28.88 278,28.04 278.12,27.92 278.12,27.68 278.24,27.56 278.36,27.32 278.6,27.08 
				278.72,26.84 278.84,26.84 278.96,26.72 279.2,26.6 279.32,26.6 279.56,26.48 			"/>
			
				<polygon clip-path="url(#SVGID_6_)" fill="none" stroke="#000000" stroke-width="0.719" stroke-linecap="round" stroke-linejoin="round" stroke-miterlimit="10" points="
				270.2,26.48 270.68,26.48 270.92,26.6 271.16,26.6 271.64,26.84 271.76,26.84 272.24,27.32 272.36,27.56 272.48,27.68 
				272.6,27.92 272.6,28.04 272.72,28.28 272.72,28.64 272.6,28.88 272.6,29 272.48,29.24 272.36,29.36 272.24,29.6 272,29.84 
				271.76,29.96 271.64,30.08 271.16,30.32 270.92,30.32 270.68,30.44 270.44,30.44 270.2,30.56 269.96,30.44 269.6,30.44 
				269.48,30.32 269.24,30.32 268.52,29.96 268.16,29.6 268.04,29.36 267.92,29.24 267.8,29 267.68,28.88 267.68,28.04 267.8,27.92 
				267.92,27.68 268.04,27.56 268.16,27.32 268.4,27.08 268.52,26.84 268.76,26.84 269.24,26.6 269.48,26.6 269.6,26.48 			"/>
			
				<line clip-path="url(#SVGID_6_)" fill="none" stroke="#000000" stroke-width="1.078" stroke-linecap="round" stroke-linejoin="round" stroke-miterlimit="10" x1="270.8" y1="35.96" x2="278.84" y2="35.96"/>
			
				<line clip-path="url(#SVGID_6_)" fill="none" stroke="#000000" stroke-width="1.078" stroke-linecap="round" stroke-linejoin="round" stroke-miterlimit="10" x1="270.8" y1="35.48" x2="275.72" y2="29.12"/>
			
				<line clip-path="url(#SVGID_6_)" fill="none" stroke="#000000" stroke-width="1.437" stroke-linecap="round" stroke-linejoin="round" stroke-miterlimit="10" x1="263.72" y1="64.4" x2="269.24" y2="68.36"/>
			
				<line clip-path="url(#SVGID_6_)" fill="none" stroke="#000000" stroke-width="1.437" stroke-linecap="round" stroke-linejoin="round" stroke-miterlimit="10" x1="269.36" y1="68.36" x2="274.76" y2="57.08"/>
			
				<line clip-path="url(#SVGID_6_)" fill="none" stroke="#000000" stroke-width="1.437" stroke-linecap="round" stroke-linejoin="round" stroke-miterlimit="10" x1="274.64" y1="56.6" x2="281.12" y2="68.36"/>
			
				<line clip-path="url(#SVGID_6_)" fill="none" stroke="#000000" stroke-width="1.437" stroke-linecap="round" stroke-linejoin="round" stroke-miterlimit="10" x1="281.36" y1="68.12" x2="286.52" y2="64.88"/>
			
				<line clip-path="url(#SVGID_6_)" fill="none" stroke="#000000" stroke-width="1.437" stroke-linecap="round" stroke-linejoin="round" stroke-miterlimit="10" x1="251" y1="47.96" x2="256.04" y2="50.24"/>
			
				<polyline clip-path="url(#SVGID_6_)" fill="none" stroke="#000000" stroke-width="1.437" stroke-linecap="round" stroke-linejoin="round" stroke-miterlimit="10" points="
				256.04,50.36 262.4,44.72 286.4,44.72 			"/>
			
				<line clip-path="url(#SVGID_6_)" fill="none" stroke="#000000" stroke-width="1.437" stroke-linecap="round" stroke-linejoin="round" stroke-miterlimit="10" x1="286.52" y1="44.72" x2="295.88" y2="49.52"/>
			
				<line clip-path="url(#SVGID_6_)" fill="none" stroke="#000000" stroke-width="1.437" stroke-linecap="round" stroke-linejoin="round" stroke-miterlimit="10" x1="296.24" y1="49.52" x2="299.24" y2="47.12"/>
			
				<path clip-path="url(#SVGID_6_)" fill="none" stroke="#000000" stroke-width="1.078" stroke-linecap="round" stroke-linejoin="round" stroke-miterlimit="10" d="
				M281.96,35.6L281,36.08c-4.54,2.245-9.739,2.245-14.28,0l-0.96-0.48"/>
			
				<line clip-path="url(#SVGID_6_)" fill="none" stroke="#000000" stroke-width="1.437" stroke-linecap="round" stroke-linejoin="round" stroke-miterlimit="10" x1="274.76" y1="41.48" x2="274.76" y2="56.12"/>
			<path clip-path="url(#SVGID_6_)" fill-rule="evenodd" clip-rule="evenodd" fill="#FFFFFF" d="M274.76,23.36h1.2
				c15.08,1.784,14.383,16.864-0.6,18.12h-1.32c-14.887-1.182-15.754-16.336-0.6-18.12H274.76"/>
			
				<path clip-path="url(#SVGID_6_)" fill="none" stroke="#000000" stroke-width="1.437" stroke-linecap="round" stroke-linejoin="round" stroke-miterlimit="10" d="
				M274.76,23.36h1.2c15.08,1.784,14.383,16.864-0.6,18.12h-1.32c-14.887-1.182-15.754-16.336-0.6-18.12H274.76z"/>
			
				<polygon clip-path="url(#SVGID_6_)" fill="none" stroke="#000000" stroke-width="0.719" stroke-linecap="round" stroke-linejoin="round" stroke-miterlimit="10" points="
				279.92,26.48 280.4,26.48 280.52,26.6 280.76,26.6 281,26.84 281.12,26.84 281.6,27.32 281.6,27.56 281.72,27.68 281.84,27.92 
				281.96,28.04 281.96,28.88 281.84,29 281.72,29.24 281.6,29.36 281.6,29.6 281.36,29.84 281.12,29.96 280.76,30.32 280.52,30.32 
				280.4,30.44 280.16,30.44 279.92,30.56 279.68,30.44 279.56,30.44 279.32,30.32 279.2,30.32 278.96,30.2 278.36,29.6 
				278.24,29.36 278.12,29.24 278.12,29 278,28.88 278,28.04 278.12,27.92 278.12,27.68 278.24,27.56 278.36,27.32 278.6,27.08 
				278.72,26.84 278.84,26.84 278.96,26.72 279.2,26.6 279.32,26.6 279.56,26.48 			"/>
			
				<polygon clip-path="url(#SVGID_6_)" fill="none" stroke="#000000" stroke-width="0.719" stroke-linecap="round" stroke-linejoin="round" stroke-miterlimit="10" points="
				270.2,26.48 270.68,26.48 270.92,26.6 271.16,26.6 271.64,26.84 271.76,26.84 272.24,27.32 272.36,27.56 272.48,27.68 
				272.6,27.92 272.6,28.04 272.72,28.28 272.72,28.64 272.6,28.88 272.6,29 272.48,29.24 272.36,29.36 272.24,29.6 272,29.84 
				271.76,29.96 271.64,30.08 271.16,30.32 270.92,30.32 270.68,30.44 270.44,30.44 270.2,30.56 269.96,30.44 269.6,30.44 
				269.48,30.32 269.24,30.32 268.52,29.96 268.16,29.6 268.04,29.36 267.92,29.24 267.8,29 267.68,28.88 267.68,28.04 267.8,27.92 
				267.92,27.68 268.04,27.56 268.16,27.32 268.4,27.08 268.52,26.84 268.76,26.84 269.24,26.6 269.48,26.6 269.6,26.48 			"/>
			
				<line clip-path="url(#SVGID_6_)" fill="none" stroke="#000000" stroke-width="1.078" stroke-linecap="round" stroke-linejoin="round" stroke-miterlimit="10" x1="270.8" y1="35.96" x2="278.84" y2="35.96"/>
			
				<line clip-path="url(#SVGID_6_)" fill="none" stroke="#000000" stroke-width="1.078" stroke-linecap="round" stroke-linejoin="round" stroke-miterlimit="10" x1="270.8" y1="35.48" x2="275.72" y2="29.12"/>
			
				<line clip-path="url(#SVGID_6_)" fill="none" stroke="#000000" stroke-width="1.437" stroke-linecap="round" stroke-linejoin="round" stroke-miterlimit="10" x1="263.72" y1="64.4" x2="269.24" y2="68.36"/>
			
				<line clip-path="url(#SVGID_6_)" fill="none" stroke="#000000" stroke-width="1.437" stroke-linecap="round" stroke-linejoin="round" stroke-miterlimit="10" x1="269.36" y1="68.36" x2="274.76" y2="57.08"/>
			
				<line clip-path="url(#SVGID_6_)" fill="none" stroke="#000000" stroke-width="1.437" stroke-linecap="round" stroke-linejoin="round" stroke-miterlimit="10" x1="274.64" y1="56.6" x2="281.12" y2="68.36"/>
			
				<line clip-path="url(#SVGID_6_)" fill="none" stroke="#000000" stroke-width="1.437" stroke-linecap="round" stroke-linejoin="round" stroke-miterlimit="10" x1="281.36" y1="68.12" x2="286.52" y2="64.88"/>
			
				<line clip-path="url(#SVGID_6_)" fill="none" stroke="#000000" stroke-width="1.437" stroke-linecap="round" stroke-linejoin="round" stroke-miterlimit="10" x1="251" y1="47.96" x2="256.04" y2="50.24"/>
			
				<polyline clip-path="url(#SVGID_6_)" fill="none" stroke="#000000" stroke-width="1.437" stroke-linecap="round" stroke-linejoin="round" stroke-miterlimit="10" points="
				256.04,50.36 262.4,44.72 286.4,44.72 			"/>
			
				<line clip-path="url(#SVGID_6_)" fill="none" stroke="#000000" stroke-width="1.437" stroke-linecap="round" stroke-linejoin="round" stroke-miterlimit="10" x1="286.52" y1="44.72" x2="295.88" y2="49.52"/>
			
				<line clip-path="url(#SVGID_6_)" fill="none" stroke="#000000" stroke-width="1.437" stroke-linecap="round" stroke-linejoin="round" stroke-miterlimit="10" x1="296.24" y1="49.52" x2="299.24" y2="47.12"/>
			<g clip-path="url(#SVGID_6_)">
				<text transform="matrix(1 0 0 1 297.9199 47.2397)"><tspan x="0" y="0" font-family="'Arial-BoldMT'" font-size="17.0356">comm</tspan><tspan x="50.175" y="0" font-family="'Arial-BoldMT'" font-size="17.0356">a</tspan><tspan x="59.547" y="0" font-family="'Arial-BoldMT'" font-size="17.0356">nd</tspan></text>
			</g>
			<rect x="371" y="176.18" clip-path="url(#SVGID_6_)" fill="#CDEBFB" width="35.94" height="18.6"/>
			
				<path clip-path="url(#SVGID_6_)" fill="none" stroke="#000000" stroke-width="1.078" stroke-linecap="round" stroke-linejoin="round" stroke-miterlimit="10" d="
				M371,176.18 M406.94,176.18H371v18.6h35.94V176.18z"/>
			<g clip-path="url(#SVGID_6_)">
				<text transform="matrix(1 0 0 1 374.96 189.8599)"><tspan x="0" y="0" font-family="'Arial-BoldMT'" font-size="12.9565">R</tspan><tspan x="9.344" y="0" font-family="'Arial-BoldMT'" font-size="12.9565">ole</tspan></text>
			</g>
			<path clip-path="url(#SVGID_6_)" fill="#373896" d="M392.78,172.22l-4.32,5.16l-4.26-5.16l-0.12-0.24l-0.12-0.24l0.12-0.36
				l0.24-0.24l0.239-0.12h0.24l0.48,0.24l3.779,4.56h-1.199l3.72-4.56l0.24-0.12l0.359-0.12h0.24l0.24,0.12l0.24,0.24v0.6
				L392.78,172.22z M387.74,157.94h1.439v18.36h-1.439V157.94z"/>
			
				<path clip-path="url(#SVGID_6_)" fill="none" stroke="#373896" stroke-width="0.12" stroke-linecap="round" stroke-linejoin="round" stroke-miterlimit="10" d="
				M392.78,172.22l-4.32,5.16l-4.26-5.16l-0.12-0.24l-0.12-0.24l0.12-0.36l0.24-0.24l0.239-0.12h0.24l0.48,0.24l3.779,4.56h-1.199
				l3.72-4.56l0.24-0.12l0.359-0.12h0.24l0.24,0.12l0.24,0.24v0.6L392.78,172.22z M387.74,157.94h1.439v18.36h-1.439V157.94z"/>
			<g clip-path="url(#SVGID_6_)">
				<text transform="matrix(1 0 0 1 347.7197 168.8599)"><tspan x="0" y="0" fill="#373896" font-family="'Arial-BoldItalicMT'" font-size="9.9574">N</tspan><tspan x="7.211" y="0" fill="#373896" font-family="'Arial-BoldItalicMT'" font-size="9.9574">e</tspan><tspan x="12.738" y="0" fill="#373896" font-family="'Arial-BoldItalicMT'" font-size="9.9574">two</tspan><tspan x="29.972" y="0" fill="#373896" font-family="'Arial-BoldItalicMT'" font-size="9.9574">r</tspan><tspan x="33.816" y="0" fill="#373896" font-family="'Arial-BoldItalicMT'" font-size="9.9574">k</tspan><tspan x="39.285" y="0" fill="#373896" font-family="'Arial-BoldItalicMT'" font-size="9.9574">  </tspan><tspan x="44.818" y="0" fill="#373896" font-family="'Arial-BoldItalicMT'" font-size="9.9574">nod</tspan><tspan x="63.154" y="0" fill="#373896" font-family="'Arial-BoldItalicMT'" font-size="9.9574">e</tspan></text>
			</g>
			<rect x="143.06" y="152.66" clip-path="url(#SVGID_6_)" fill="#CDEBFB" width="105.42" height="38.64"/>
			
				<path clip-path="url(#SVGID_6_)" fill="none" stroke="#000000" stroke-width="1.078" stroke-linecap="round" stroke-linejoin="round" stroke-miterlimit="10" d="
				M143.06,152.66 M248.48,152.66H143.06v38.64h105.42V152.66z"/>
			<g clip-path="url(#SVGID_6_)">
				<text transform="matrix(1 0 0 1 147.02 163.46)"><tspan x="0" y="0" font-family="'Arial-BoldMT'" font-size="12.9565">Cla</tspan><tspan x="20.162" y="0" font-family="'Arial-BoldMT'" font-size="12.9565">s</tspan><tspan x="27.472" y="0" font-family="'Arial-BoldMT'" font-size="12.9565">s attr</tspan><tspan x="59.154" y="0" font-family="'Arial-BoldMT'" font-size="12.9565">i</tspan><tspan x="62.871" y="0" font-family="'Arial-BoldMT'" font-size="12.9565">but</tspan><tspan x="83.014" y="0" font-family="'Arial-BoldMT'" font-size="12.9565">e</tspan><tspan x="90.323" y="0" font-family="'Arial-BoldMT'" font-size="12.9565">s</tspan></text>
			</g>
			<g clip-path="url(#SVGID_6_)">
				<text transform="matrix(1 0 0 1 148.3403 175.9395)"><tspan x="0" y="0" font-family="'Arial-BoldMT'" font-size="12.9565">+ o</tspan><tspan x="19.081" y="0" font-family="'Arial-BoldMT'" font-size="12.9565">w</tspan><tspan x="29.392" y="0" font-family="'Arial-BoldMT'" font-size="12.9565">n methods</tspan></text>
			</g>
			<g clip-path="url(#SVGID_6_)">
				<text transform="matrix(1 0 0 1 149.4209 188.4189)" font-family="'Arial-BoldMT'" font-size="12.9565">+</text>
			</g>
			<g clip-path="url(#SVGID_6_)">
				<text transform="matrix(1 0 0 1 160.5801 188.4189)"><tspan x="0" y="0" fill="#373896" font-family="'Arial-BoldItalicMT'" font-size="12.9565">role</tspan><tspan x="23.762" y="0" fill="#373896" font-family="'Arial-BoldItalicMT'" font-size="12.9565"> </tspan><tspan x="27.479" y="0" fill="#373896" font-family="'Arial-BoldItalicMT'" font-size="12.9565">methods</tspan></text>
			</g>
			<path clip-path="url(#SVGID_6_)" fill="#ED2224" d="M160.34,214.94l-4.32,5.16l-4.32-5.16l-0.12-0.24v-0.6l0.24-0.24l0.24-0.12
				h0.6l0.24,0.24l3.72,4.44h-1.08l3.72-4.44l0.24-0.24h0.48l0.36,0.12l0.12,0.24l0.12,0.24v0.36L160.34,214.94z M155.3,213.14h1.56
				v5.76h-1.56V213.14z M155.3,202.58h1.56v6h-1.56V202.58z M155.3,192.14h1.56v6h-1.56V192.14z"/>
			
				<path clip-path="url(#SVGID_6_)" fill="none" stroke="#ED2224" stroke-width="0.12" stroke-linecap="round" stroke-linejoin="round" stroke-miterlimit="10" d="
				M160.34,214.94l-4.32,5.16l-4.32-5.16l-0.12-0.24v-0.6l0.24-0.24l0.24-0.12h0.6l0.24,0.24l3.72,4.44h-1.08l3.72-4.44l0.24-0.24
				h0.48l0.36,0.12l0.12,0.24l0.12,0.24v0.36L160.34,214.94z M155.3,213.14h1.56v5.76h-1.56V213.14z M155.3,202.58h1.56v6h-1.56
				V202.58z M155.3,192.14h1.56v6h-1.56V192.14z"/>
			<g clip-path="url(#SVGID_6_)">
				<text transform="matrix(1 0 0 1 161.7798 133.7598)"><tspan x="0" y="0" fill="#373896" font-family="'Arial-BoldMT'" font-size="12.9565">real</tspan><tspan x="23.053" y="0" fill="#373896" font-family="'Arial-BoldMT'" font-size="12.9565">i</tspan><tspan x="26.77" y="0" fill="#373896" font-family="'Arial-BoldMT'" font-size="12.9565">ze</tspan></text>
			</g>
			<path clip-path="url(#SVGID_6_)" fill="#373896" d="M160.34,146.96l-4.32,5.1l-4.32-5.1c-0.501-0.984,0.337-1.572,1.2-0.96
				l3.72,4.5h-1.08l3.72-4.5c0.803-0.503,1.306-0.257,1.32,0.72L160.34,146.96z M155.3,109.88h1.56v41.1h-1.56V109.88z"/>
			
				<path clip-path="url(#SVGID_6_)" fill="none" stroke="#373896" stroke-width="0.12" stroke-linecap="round" stroke-linejoin="round" stroke-miterlimit="10" d="
				M160.34,146.96l-4.32,5.1l-4.32-5.1c-0.501-0.984,0.337-1.572,1.2-0.96l3.72,4.5h-1.08l3.72-4.5
				c0.803-0.503,1.306-0.257,1.32,0.72L160.34,146.96z M155.3,109.88h1.56v41.1h-1.56V109.88z"/>
			<g clip-path="url(#SVGID_6_)">
				<text transform="matrix(1 0 0 1 261.3198 180.0195)"><tspan x="0" y="0" fill="#373896" font-family="'Arial-BoldItalicMT'" font-size="11.9967">Injec</tspan><tspan x="27.458" y="0" fill="#373896" font-family="'Arial-BoldItalicMT'" font-size="11.9967">t</tspan><tspan x="31.429" y="0" fill="#373896" font-family="'Arial-BoldItalicMT'" font-size="11.9967"> r</tspan><tspan x="39.479" y="0" fill="#373896" font-family="'Arial-BoldItalicMT'" font-size="11.9967">o</tspan><tspan x="46.687" y="0" fill="#373896" font-family="'Arial-BoldItalicMT'" font-size="11.9967">l</tspan><tspan x="50.043" y="0" fill="#373896" font-family="'Arial-BoldItalicMT'" font-size="11.9967">e</tspan></text>
			</g>
			<g clip-path="url(#SVGID_6_)">
				<text transform="matrix(1 0 0 1 264.6802 192.9795)" fill="#373896" font-family="'Arial-BoldItalicMT'" font-size="11.9967">methods</text>
			</g>
			<path clip-path="url(#SVGID_6_)" fill="#373896" d="M249.44,187.94l-5.28-4.32l5.28-4.32l0.24-0.24h0.24l0.36,0.12l0.12,0.12
				l0.24,0.36v0.24l-0.12,0.24l-0.12,0.24l-4.56,3.72v-1.08l4.56,3.72l0.24,0.48v0.36l-0.36,0.36l-0.36,0.12h-0.24L249.44,187.94z
				 M368.6,184.34H245.36v-1.56H368.6V184.34z"/>
			
				<path clip-path="url(#SVGID_6_)" fill="none" stroke="#373896" stroke-width="0.12" stroke-linecap="round" stroke-linejoin="round" stroke-miterlimit="10" d="
				M249.44,187.94l-5.28-4.32l5.28-4.32l0.24-0.24h0.24l0.36,0.12l0.12,0.12l0.24,0.36v0.24l-0.12,0.24l-0.12,0.24l-4.56,3.72v-1.08
				l4.56,3.72l0.24,0.48v0.36l-0.36,0.36l-0.36,0.12h-0.24L249.44,187.94z M368.6,184.34H245.36v-1.56H368.6V184.34z"/>
			<g clip-path="url(#SVGID_6_)">
				<text transform="matrix(1 0 0 1 160.1001 213.0195)"><tspan x="0" y="0" fill="#ED2224" font-family="'Arial-BoldItalicMT'" font-size="11.9967">In</tspan><tspan x="10.733" y="0" fill="#ED2224" font-family="'Arial-BoldItalicMT'" font-size="11.9967">s</tspan><tspan x="17.429" y="0" fill="#ED2224" font-family="'Arial-BoldItalicMT'" font-size="11.9967">t</tspan><tspan x="21.4" y="0" fill="#ED2224" font-family="'Arial-BoldItalicMT'" font-size="11.9967">a</tspan><tspan x="28.096" y="0" fill="#ED2224" font-family="'Arial-BoldItalicMT'" font-size="11.9967">n</tspan><tspan x="35.46" y="0" fill="#ED2224" font-family="'Arial-BoldItalicMT'" font-size="11.9967">t</tspan><tspan x="39.431" y="0" fill="#ED2224" font-family="'Arial-BoldItalicMT'" font-size="11.9967">ia</tspan><tspan x="49.484" y="0" fill="#ED2224" font-family="'Arial-BoldItalicMT'" font-size="11.9967">t</tspan><tspan x="53.455" y="0" fill="#ED2224" font-family="'Arial-BoldItalicMT'" font-size="11.9967">e</tspan><tspan x="60.151" y="0" fill="#ED2224" font-family="'Arial-BoldItalicMT'" font-size="11.9967"> </tspan><tspan x="63.4" y="0" fill="#ED2224" font-family="'Arial-BoldItalicMT'" font-size="11.9967">c</tspan><tspan x="70.096" y="0" fill="#ED2224" font-family="'Arial-BoldItalicMT'" font-size="11.9967">l</tspan><tspan x="73.465" y="0" fill="#ED2224" font-family="'Arial-BoldItalicMT'" font-size="11.9967">a</tspan><tspan x="80.065" y="0" fill="#ED2224" font-family="'Arial-BoldItalicMT'" font-size="11.9967">ss </tspan><tspan x="96.814" y="0" fill="#ED2224" font-family="'Arial-BoldItalicMT'" font-size="11.9967">t</tspan><tspan x="100.785" y="0" fill="#ED2224" font-family="'Arial-BoldItalicMT'" font-size="11.9967">o</tspan><tspan x="108.113" y="0" fill="#ED2224" font-family="'Arial-BoldItalicMT'" font-size="11.9967"> </tspan><tspan x="111.47" y="0" fill="#ED2224" font-family="'Arial-BoldItalicMT'" font-size="11.9967">o</tspan><tspan x="118.678" y="0" fill="#ED2224" font-family="'Arial-BoldItalicMT'" font-size="11.9967">b</tspan><tspan x="126.006" y="0" fill="#ED2224" font-family="'Arial-BoldItalicMT'" font-size="11.9967">j</tspan><tspan x="129.375" y="0" fill="#ED2224" font-family="'Arial-BoldItalicMT'" font-size="11.9967">ec</tspan><tspan x="142.768" y="0" fill="#ED2224" font-family="'Arial-BoldItalicMT'" font-size="11.9967">t</tspan></text>
			</g>
			<rect x="145.46" y="71.36" clip-path="url(#SVGID_6_)" fill="#CDEBFB" width="105.42" height="38.52"/>
			
				<path clip-path="url(#SVGID_6_)" fill="none" stroke="#000000" stroke-width="1.078" stroke-linecap="round" stroke-linejoin="round" stroke-miterlimit="10" d="
				M145.46,71.36 M250.88,71.36H145.46v38.52h105.42V71.36z"/>
			<g clip-path="url(#SVGID_6_)">
				<text transform="matrix(1 0 0 1 162.8599 88.0396)"><tspan x="0" y="0" font-family="'Arial-BoldMT'" font-size="12.9565">Concept</tspan><tspan x="51.826" y="0" font-family="'Arial-BoldMT'" font-size="12.9565">u</tspan><tspan x="59.857" y="0" font-family="'Arial-BoldMT'" font-size="12.9565">a</tspan><tspan x="66.998" y="0" font-family="'Arial-BoldMT'" font-size="12.9565">l</tspan></text>
			</g>
			<g clip-path="url(#SVGID_6_)">
				<text transform="matrix(1 0 0 1 174.0195 102.0791)"><tspan x="0" y="0" font-family="'Arial-BoldMT'" font-size="12.9565">sch</tspan><tspan x="22.326" y="0" font-family="'Arial-BoldMT'" font-size="12.9565">e</tspan><tspan x="29.635" y="0" font-family="'Arial-BoldMT'" font-size="12.9565">ma</tspan></text>
			</g>
			<path clip-path="url(#SVGID_6_)" d="M185.78,56.36l1.92,13.44l-12.48-5.4l-0.24-0.12c-0.538-0.722-0.323-0.348-0.36-1.2v-0.12
				l0.12-0.24c0.285-0.389,0.722-0.54,1.2-0.48l0.24,0.12l10.56,4.56l-1.56,1.2l-1.68-11.4v-0.48l0.12-0.24l0.12-0.12l0.12-0.24
				l0.12-0.12l0.24-0.12h0.72l0.12,0.12l0.24,0.12l0.12,0.12l0.12,0.12L185.78,56.36z M185.18,64.64l1.2,1.68l0.24,0.12l-1.8,1.44
				l-0.24-0.24l-1.2-1.56L185.18,64.64z M182.54,61.04l1.32,1.8l-1.8,1.44l-1.32-1.8L182.54,61.04z M179.9,57.44l0.48,0.6l0.84,1.2
				l-1.8,1.32l-0.96-1.2l-0.36-0.6L179.9,57.44z M177.5,53.72l0.24,0.36l0.84,1.32l0.12,0.24l-1.92,1.2l-0.12-0.24l-0.84-1.32
				l-0.24-0.36L177.5,53.72z M175.34,49.88l0.24,0.48l0.72,1.32l0.12,0.12l-2.04,1.2l-0.12-0.36l-0.72-1.2l-0.24-0.48L175.34,49.88z
				 M173.54,45.92l0.48,0.96l0.36,1.08l-2.04,0.84l-0.48-1.08l-0.36-1.08L173.54,45.92z M172.82,41.84v0.96l0.24,0.96v0.12
				l-2.16,0.48l-0.12-0.24l-0.12-1.08l-0.12-1.08L172.82,41.84z M173.66,38.12l-0.36,0.6l-0.24,0.72l-0.12,0.48l-2.16-0.48
				l0.12-0.84l0.48-0.96l0.24-0.6L173.66,38.12z M176.42,35.48h-0.12l-0.84,0.6l-0.72,0.6L173.3,35l0.84-0.72l1.08-0.72l0.12-0.12
				L176.42,35.48z M180.26,33.8l-0.6,0.24l-1.2,0.36l-0.12,0.12l-0.96-2.04l0.24-0.12l1.44-0.48l0.6-0.24L180.26,33.8z
				 M184.58,32.84h-0.24l-1.68,0.36h-0.24l-0.48-2.16h0.36l1.68-0.36l0.24-0.12L184.58,32.84z M188.9,32.24l-0.84,0.12l-1.32,0.12
				l-0.24-2.16l1.32-0.24l0.84-0.12L188.9,32.24z M193.34,31.88h-1.08L191.18,32l-0.24-2.28h1.2l1.08-0.12L193.34,31.88z
				 M197.78,31.64h-0.96l-1.2,0.12l-0.12-2.28h1.32l0.96-0.12V31.64z M202.34,31.64h-2.28v-2.28h2.28V31.64z M206.78,31.64h-2.28
				l0.12-2.28h2.16V31.64z M211.22,31.76l-1.32-0.12h-0.84v-2.28l0.84,0.12h1.44L211.22,31.76z M215.78,31.88h-0.24l-2.04-0.12
				l0.12-2.16h2.28L215.78,31.88z M220.22,32.12L218.54,32h-0.6l0.12-2.28h0.6l1.68,0.12L220.22,32.12z M224.6,32.36l-2.1-0.12
				l0.12-2.28l2.1,0.12h0.12L224.6,32.36z M229.16,32.6l-1.44-0.12h-0.84L227,30.2l0.84,0.12h1.44L229.16,32.6z M233.6,32.96
				l-2.16-0.24l0.12-2.16l2.28,0.12L233.6,32.96z M238.16,33.2l-2.28-0.12L236,30.8l2.28,0.24L238.16,33.2z M242.6,33.56l-2.04-0.12
				h-0.24l0.24-2.28h0.12l2.04,0.24L242.6,33.56z M247.04,33.92l-2.16-0.12l0.12-2.28l2.28,0.12L247.04,33.92z M251.6,34.28
				l-2.28-0.12l0.24-2.28l2.16,0.24L251.6,34.28z M256.04,34.64l-2.28-0.12l0.24-2.28l2.28,0.24L256.04,34.64z M260.48,35
				l-2.16-0.12l0.12-2.28l2.28,0.24L260.48,35z"/>
			
				<path clip-path="url(#SVGID_6_)" fill="none" stroke="#000000" stroke-width="0.12" stroke-linecap="round" stroke-linejoin="round" stroke-miterlimit="10" d="
				M185.78,56.36l1.92,13.44l-12.48-5.4l-0.24-0.12c-0.538-0.722-0.323-0.348-0.36-1.2v-0.12l0.12-0.24
				c0.285-0.389,0.722-0.54,1.2-0.48l0.24,0.12l10.56,4.56l-1.56,1.2l-1.68-11.4v-0.48l0.12-0.24l0.12-0.12l0.12-0.24l0.12-0.12
				l0.24-0.12h0.72l0.12,0.12l0.24,0.12l0.12,0.12l0.12,0.12L185.78,56.36z M185.18,64.64l1.2,1.68l0.24,0.12l-1.8,1.44l-0.24-0.24
				l-1.2-1.56L185.18,64.64z M182.54,61.04l1.32,1.8l-1.8,1.44l-1.32-1.8L182.54,61.04z M179.9,57.44l0.48,0.6l0.84,1.2l-1.8,1.32
				l-0.96-1.2l-0.36-0.6L179.9,57.44z M177.5,53.72l0.24,0.36l0.84,1.32l0.12,0.24l-1.92,1.2l-0.12-0.24l-0.84-1.32l-0.24-0.36
				L177.5,53.72z M175.34,49.88l0.24,0.48l0.72,1.32l0.12,0.12l-2.04,1.2l-0.12-0.36l-0.72-1.2l-0.24-0.48L175.34,49.88z
				 M173.54,45.92l0.48,0.96l0.36,1.08l-2.04,0.84l-0.48-1.08l-0.36-1.08L173.54,45.92z M172.82,41.84v0.96l0.24,0.96v0.12
				l-2.16,0.48l-0.12-0.24l-0.12-1.08l-0.12-1.08L172.82,41.84z M173.66,38.12l-0.36,0.6l-0.24,0.72l-0.12,0.48l-2.16-0.48
				l0.12-0.84l0.48-0.96l0.24-0.6L173.66,38.12z M176.42,35.48h-0.12l-0.84,0.6l-0.72,0.6L173.3,35l0.84-0.72l1.08-0.72l0.12-0.12
				L176.42,35.48z M180.26,33.8l-0.6,0.24l-1.2,0.36l-0.12,0.12l-0.96-2.04l0.24-0.12l1.44-0.48l0.6-0.24L180.26,33.8z
				 M184.58,32.84h-0.24l-1.68,0.36h-0.24l-0.48-2.16h0.36l1.68-0.36l0.24-0.12L184.58,32.84z M188.9,32.24l-0.84,0.12l-1.32,0.12
				l-0.24-2.16l1.32-0.24l0.84-0.12L188.9,32.24z M193.34,31.88h-1.08L191.18,32l-0.24-2.28h1.2l1.08-0.12L193.34,31.88z
				 M197.78,31.64h-0.96l-1.2,0.12l-0.12-2.28h1.32l0.96-0.12V31.64z M202.34,31.64h-2.28v-2.28h2.28V31.64z M206.78,31.64h-2.28
				l0.12-2.28h2.16V31.64z M211.22,31.76l-1.32-0.12h-0.84v-2.28l0.84,0.12h1.44L211.22,31.76z M215.78,31.88h-0.24l-2.04-0.12
				l0.12-2.16h2.28L215.78,31.88z M220.22,32.12L218.54,32h-0.6l0.12-2.28h0.6l1.68,0.12L220.22,32.12z M224.6,32.36l-2.1-0.12
				l0.12-2.28l2.1,0.12h0.12L224.6,32.36z M229.16,32.6l-1.44-0.12h-0.84L227,30.2l0.84,0.12h1.44L229.16,32.6z M233.6,32.96
				l-2.16-0.24l0.12-2.16l2.28,0.12L233.6,32.96z M238.16,33.2l-2.28-0.12L236,30.8l2.28,0.24L238.16,33.2z M242.6,33.56l-2.04-0.12
				h-0.24l0.24-2.28h0.12l2.04,0.24L242.6,33.56z M247.04,33.92l-2.16-0.12l0.12-2.28l2.28,0.12L247.04,33.92z M251.6,34.28
				l-2.28-0.12l0.24-2.28l2.16,0.24L251.6,34.28z M256.04,34.64l-2.28-0.12l0.24-2.28l2.28,0.24L256.04,34.64z M260.48,35
				l-2.16-0.12l0.12-2.28l2.28,0.24L260.48,35z"/>
			<g clip-path="url(#SVGID_6_)">
				<text transform="matrix(1 0 0 1 189.7402 48.0796)" font-family="'Arial-BoldMT'" font-size="17.0356">mental</text>
			</g>
			<g clip-path="url(#SVGID_6_)">
				<text transform="matrix(1 0 0 1 192.1401 62.3589)" font-family="'Arial-BoldMT'" font-size="17.0356">model</text>
			</g>
		</g>
	</g>
</g>
</svg>
